<?xml version="1.0" encoding="UTF-8"?>
<svg xmlns="http://www.w3.org/2000/svg" version="1.1" viewBox="0 0 90.2 54">
  <!-- Generator: Adobe Illustrator 28.7.1, SVG Export Plug-In . SVG Version: 1.2.0 Build 142)  -->
  <g>
    <g id="Layer_1">
      <g>
        <path d="M28.5,52.4h-3.9c-.6,0-1.2-.1-1.6-.4-.5-.3-.8-.8-1-1.5L7.1,6.7c-.3-1.1-.7-1.8-1.2-2.2-.4-.4-1-.6-1.7-.7l-2.3-.5c-.5-.1-.8-.3-.9-.5-.2-.2-.3-.4-.3-.7s.1-.7.4-.9c.3-.2.6-.3,1.1-.3h21.7c.5,0,.9.1,1.2.3s.4.5.4.9-.1.5-.3.7-.6.3-1.1.5l-2.7.5c-1.4.2-2.2.6-2.4,1.3-.3.7-.1,1.9.5,3.6l11.7,36-2.3,3.3L42.3,7.1l2.6,1.9-13.9,41.7c-.2.6-.6,1.1-1,1.4-.5.3-1,.4-1.5.4ZM61.4,52.4h-3.9c-.6,0-1.1-.2-1.6-.5s-.8-.8-1-1.6L40.3,6.6c-.3-1-.7-1.7-1.1-2.1-.4-.4-.9-.6-1.5-.8l-2.1-.4c-.5-.1-.8-.3-1-.5-.2-.2-.3-.5-.3-.8,0-.8.5-1.1,1.6-1.1h20.9c1,0,1.5.4,1.5,1.2s0,.6-.3.8c-.2.2-.5.3-1,.4l-3.2.6c-1.1.2-1.7.6-1.9,1.3s0,1.7.4,3.1l11.8,36.7-2.5,3.5,12.2-38.1c.7-2.2.9-3.8.6-4.8-.3-1-1.3-1.6-2.9-1.8l-2.7-.5c-.5-.1-.9-.3-1.1-.5s-.3-.5-.3-.8.1-.7.4-.8c.3-.2.6-.3,1.1-.3h14.1c.5,0,.9.1,1.2.3.3.2.4.5.4.9s0,.6-.3.8c-.2.2-.5.4-1.1.5l-1.7.4c-.9.2-1.6.8-2.3,1.7-.7.9-1.3,2.3-1.9,4.3l-13.4,40.8c-.3.7-.6,1.2-1.1,1.5-.5.3-1,.4-1.5.4Z"/>
        <path d="M81.9,53c-1.4,0-2.6-.3-3.7-1-1.1-.7-2-1.6-2.7-2.8-.7-1.2-1-2.5-1-3.8s.3-2.7,1-3.9c.7-1.2,1.6-2.1,2.7-2.8s2.4-1,3.7-1,2.6.3,3.7,1,2,1.6,2.7,2.8c.7,1.2,1,2.5,1,3.9s-.3,2.6-1,3.8c-.7,1.2-1.5,2.1-2.7,2.8-1.1.7-2.4,1-3.7,1Z"/>
      </g>
    </g>
  </g>
</svg>