<?xml version="1.0" encoding="UTF-8"?>
<svg id="Layer_1" xmlns="http://www.w3.org/2000/svg" version="1.1" viewBox="0 0 147.79 25.93">
  <!-- Generator: Adobe Illustrator 30.1.0, SVG Export Plug-In . SVG Version: 2.1.1 Build 136)  -->
  <path d="M10.73,24.21L4.01,4.6c-.45-1.31-.86-1.57-2.56-1.95-.32-.13-.51-.35-.51-.64,0-.26.29-.48.7-.48h7.45c.42,0,.7.19.7.48s-.19.51-.54.64c-1.5.32-2.14.61-2.14,1.34,0,.26.1.58.22.96l4.35,12.31c.16.42.38.64.64.64.22,0,.48-.22.61-.64l3.77-11.48c.03-.13.06-.26.06-.35,0-.16-.03-.29-.1-.48l-.13-.42c-.35-1.18-.83-1.44-2.62-1.89-.32-.06-.51-.35-.51-.64,0-.26.29-.48.7-.48h7.39c.42,0,.7.19.7.51,0,.29-.19.54-.48.64-1.41.38-1.98.64-1.98,1.44,0,.45.16,1.05.48,1.92l3.87,11.19c.13.42.38.64.61.64.26,0,.48-.22.64-.67l3.39-10.2c.32-.96.51-1.66.51-2.21,0-.9-.51-1.41-1.63-2.17-.26-.16-.45-.29-.45-.58,0-.26.29-.51.7-.51h5.72c.42,0,.7.19.7.45,0,.32-.13.48-.42.64-2.17,1.34-2.59,1.82-3.45,4.38l-5.82,17.21c-.1.32-.35.54-.64.54h-.1c-.29,0-.61-.06-.77-.54l-4.83-14.46c-.13-.45-.38-.67-.61-.67s-.45.22-.61.67l-4.83,14.46c-.13.35-.38.58-.67.58h-.1c-.26,0-.58-.1-.74-.58Z"/>
  <path d="M38.97,23.92v-.1c0-.26.13-.45.42-.54,2.17-.74,2.53-1.09,2.53-3.77V6.43c0-2.69-.35-3.04-2.53-3.77-.29-.1-.42-.29-.42-.54v-.1c0-.29.19-.48.48-.48h8.57c5.5,0,8.19,2.49,8.19,5.53,0,2.65-2.11,5.05-5.12,5.88-.29.1-.48.26-.48.48,0,.1.06.22.16.35,2.27,3.2,4.16,5.44,5.88,7.77.7.96,1.54,1.5,2.05,1.73.26.13.38.42.38.64s-.19.48-.48.48h-2.97c-.26,0-.8-.1-1.25-.74-2.08-2.91-4.61-6.4-6.56-9.43-.48-.74-1.06-.86-1.41-.86l-.54.03c-.58,0-.96.42-.96.99v5.12c0,2.69.35,3.04,2.53,3.77.29.1.42.29.42.54v.1c0,.29-.19.48-.48.48h-7.93c-.29,0-.48-.19-.48-.48ZM48.02,12.02c2.69,0,5.15-1.38,5.15-4.73s-2.27-4.22-5.34-4.22h-1.63c-.93,0-1.28.32-1.28.96v7.04c0,.61.35.96,1.34.96h1.76Z"/>
  <path d="M63.95,23.92v-.1c0-.26.13-.45.42-.54,2.17-.74,2.53-1.09,2.53-3.77V6.43c0-2.69-.35-3.04-2.53-3.77-.29-.1-.42-.29-.42-.54v-.1c0-.29.19-.48.48-.48h7.93c.29,0,.48.19.48.48v.1c0,.26-.13.45-.42.54-2.17.74-2.53,1.09-2.53,3.77v13.08c0,2.69.35,3.04,2.53,3.77.29.1.42.29.42.54v.1c0,.29-.19.48-.48.48h-7.93c-.29,0-.48-.19-.48-.48Z"/>
  <path d="M77.9,23.92v-.1c0-.26.13-.45.42-.54,2.17-.74,2.53-1.09,2.53-3.77V6.43c0-2.69-.35-3.04-2.53-3.77-.29-.1-.42-.29-.42-.54v-.1c0-.29.19-.48.48-.48h7.93c.29,0,.48.19.48.48v.1c0,.26-.13.45-.42.54-2.17.74-2.53,1.09-2.53,3.77v13.08c0,2.69.35,3.04,2.53,3.77.29.1.42.29.42.54v.1c0,.29-.19.48-.48.48h-7.93c-.29,0-.48-.19-.48-.48ZM92.45,23.34l-7.71-9.79c-.13-.16-.19-.35-.19-.54,0-.22.06-.45.22-.61l5.92-6.24c.9-.96,1.38-1.73,1.38-2.33,0-.51-.32-.9-.93-1.22-.29-.16-.38-.22-.38-.64,0-.26.19-.45.48-.45h6.36c.29,0,.48.19.48.45,0,.42-.06.58-.32.7-2.37,1.25-3.87,2.33-4.96,3.49l-4.51,4.8c-.35.35-.51.74-.51,1.09s.13.67.38.99l6.33,8.09c.67.86,2.17,1.79,3.36,2.08.51.13.7.29.7.64,0,.38-.22.54-.7.54h-3.77c-.48,0-1.12-.42-1.63-1.06Z"/>
  <path d="M104.95,22.7c-.13-.06-.19-.16-.19-.32l-.29-3.65c-.06-.74.19-1.18.64-1.18.35,0,.67.29.96.86,1.54,3.07,3.68,4.73,5.85,4.73s3.65-1.54,3.65-3.58c0-1.89-1.34-3.42-4.86-5.57-4.41-2.69-5.92-4.73-5.92-7.32,0-3.42,2.62-5.53,5.85-5.53,1.79,0,4.73.67,5.72,1.25.16.13.22.16.26.32l.51,4.03v.03c0,.29-.29.54-.61.54-.35,0-.7-.29-.99-.83-1.28-2.33-3.1-3.77-4.93-3.77s-3.26,1.41-3.26,3.2,1.18,3.07,4.77,5.21c4.67,2.78,6.14,4.67,6.14,7.52,0,3.77-2.65,6.14-6.33,6.14-2.11,0-4.64-.77-6.97-2.08Z"/>
  <path d="M123.95,23.92v-.1c0-.26.13-.45.42-.54,2.17-.74,2.53-1.09,2.53-3.77V6.43c0-2.69-.35-3.04-2.53-3.77-.29-.1-.42-.29-.42-.54v-.1c0-.29.19-.48.48-.48h7.93c.29,0,.48.19.48.48v.1c0,.26-.13.45-.42.54-2.17.74-2.53,1.09-2.53,3.77v3.49c0,.54.45.99.99.99h9.02c.54,0,.99-.45.99-.99v-3.49c0-2.69-.35-3.04-2.53-3.77-.29-.1-.42-.29-.42-.54v-.1c0-.29.19-.48.48-.48h7.93c.29,0,.48.19.48.48v.1c0,.26-.13.45-.42.54-2.17.74-2.53,1.09-2.53,3.77v13.08c0,2.69.35,3.04,2.53,3.77.29.1.42.29.42.54v.1c0,.29-.19.48-.48.48h-7.93c-.29,0-.48-.19-.48-.48v-.1c0-.26.13-.45.42-.54,2.17-.74,2.53-1.09,2.53-3.77v-5.69c0-.54-.45-.99-.99-.99h-9.02c-.54,0-.99.45-.99.99v5.69c0,2.69.35,3.04,2.53,3.77.29.1.42.29.42.54v.1c0,.29-.19.48-.48.48h-7.93c-.29,0-.48-.19-.48-.48Z"/>
</svg>